<?xml version="1.0" encoding="UTF-8"?><svg id="a" xmlns="http://www.w3.org/2000/svg" viewBox="0 0 168 33"><defs><style>.b{fill:#f58c1f;}.c{fill:#04499c;}.d{fill:#02274c;}.e{fill:#b7b7b7;}.f{fill:#ba1e7a;}.g{fill:#c81307;}.h{fill:#abcd07;}.i{fill:#15d2b0;}.j{fill:#0c67b2;}.k{fill:#51388c;}</style></defs><g><g><path class="e" d="M22.03,24.12c4.23,0,7.64-3.18,7.64-7.09s-3.41-7.09-7.64-7.09-7.64,3.18-7.64,7.09,3.41,7.09,7.64,7.09Zm0-12.77c3.41,0,6.18,2.56,6.18,5.67s-2.76,5.67-6.18,5.67-6.18-2.56-6.18-5.67,2.76-5.67,6.18-5.67Z"/><path class="e" d="M22.03,24.18c-4.25,0-7.7-3.21-7.7-7.16s3.46-7.16,7.7-7.16,7.7,3.21,7.7,7.16-3.46,7.16-7.7,7.16Zm0-14.19c-4.18,0-7.58,3.15-7.58,7.03s3.4,7.03,7.58,7.03,7.58-3.15,7.58-7.03-3.41-7.03-7.58-7.03Zm0,12.77c-3.44,0-6.24-2.58-6.24-5.74s2.8-5.74,6.24-5.74,6.24,2.58,6.24,5.74-2.8,5.74-6.24,5.74Zm0-11.34c-3.37,0-6.11,2.52-6.11,5.61s2.74,5.61,6.11,5.61,6.11-2.52,6.11-5.61-2.74-5.61-6.11-5.61Z"/></g><path class="f" d="M22.17,7.9c2.74,1.3,6.39,3.11,7.75,4.16-.17-1.16-.4-2.29-.71-3.44-2.32-1.02-4.74-1.52-7.18-1.49-.44,.02-.89,.04-1.33,.08,.37,.18,.87,.42,1.47,.7Z"/><g><path class="b" d="M22.19,25.74c1.92,.77,3.47,1.28,3.77,1.38,3.2-.83,5.97-2.64,7.01-3.34,2.7-1.79,5.06-3.97,7.02-6.46-.58-.82-1.46-2-2.69-3.23-.86,1.69-7.22,9.88-15.11,11.65Z"/><path class="k" d="M10.48,11.46l-.06,.04c-2.29,1.59-4.32,3.56-6.05,5.83,.78,1.04,1.54,1.94,2.27,2.69,1.17-1.67,3.01-3.56,4.67-5.19l.13-.13c1.01-.97,2.37-2.31,4.45-3.68l.04-.03c1.4-.91,3.12-2.04,5.64-2.96-.82-.39-1.43-.67-1.61-.76-4.26,.61-7.4,2.77-9.48,4.19Z"/></g><path class="h" d="M20.96,25.64c-1.33-.55-4.51-1.98-6.65-3.87,.25,1.84,.54,3.87,.68,4.2,.48,.22,.88,.37,1.18,.49,.15,.06,.28,.11,.38,.15,2.37,.8,3.99,.92,4.17,.93,.02,0,1.47,.13,2.89,0,.5-.04,1.02-.12,1.61-.25-.79-.26-2.19-.76-3.78-1.43-.14-.05-.31-.12-.49-.22Z"/><path class="g" d="M37.01,13.82c-1.11-1.07-2.36-2.06-3.71-2.95l-.12-.07c-.87-.56-2.06-1.31-3.52-1.99,.4,1.61,.69,3.25,.86,4.87,.09,.86,.13,1.75,.13,2.79,0,1.95-.16,3.57-.32,4.69,3.95-3.16,6.47-6.78,6.68-7.36Z"/><path class="j" d="M13.54,13.47c-1.03,.8-1.99,1.64-2.93,2.58-.96,.96-1.71,1.86-2.27,2.51-.41,.48-.75,.91-1.05,1.29-.13,.17-.25,.32-.37,.46,.89,.96,1.9,1.86,3.01,2.69,1.71,1.28,3.34,2.15,4.5,2.66-.27-1.24-.42-2.31-.52-3.1l-.05-.34c-.27-2.29-.29-4.16-.33-6.33-.03-.85,0-1.59,0-2.17,0-.09,0-.18,0-.27Z"/></g><g><g><path class="c" d="M111.06,14.03V3.89h2.99c1.09,0,1.91,.22,2.47,.67,.56,.45,.84,1.11,.84,1.98,0,.52-.14,.98-.43,1.37-.29,.39-.68,.67-1.17,.83,.59,.13,1.06,.42,1.42,.87,.36,.45,.54,.97,.54,1.56,0,.9-.29,1.59-.87,2.1s-1.38,.75-2.41,.75h-3.39Zm.86-5.59h2.34c.72-.01,1.27-.18,1.66-.51,.39-.32,.59-.79,.59-1.41,0-.65-.2-1.13-.61-1.44-.41-.31-1.02-.46-1.84-.46h-2.14v3.82Zm0,.72v4.14h2.57c.73,0,1.32-.19,1.74-.56s.64-.89,.64-1.55c0-.63-.21-1.12-.62-1.48s-.98-.55-1.7-.55h-2.64Z"/><path class="c" d="M124.16,13.07c-.5,.73-1.3,1.09-2.4,1.09-.8,0-1.41-.23-1.83-.7-.42-.47-.63-1.16-.64-2.07V6.49h.83v4.8c0,1.43,.58,2.15,1.74,2.15s1.97-.5,2.29-1.5V6.49h.84v7.53h-.81v-.95Z"/><path class="c" d="M131.38,12.11c0-.41-.17-.74-.5-1s-.83-.45-1.5-.59c-.67-.14-1.19-.3-1.56-.49-.37-.18-.64-.41-.82-.67-.18-.26-.27-.59-.27-.96,0-.59,.25-1.09,.75-1.47,.5-.39,1.13-.58,1.91-.58,.84,0,1.51,.21,2.02,.62,.51,.42,.76,.96,.76,1.63h-.84c0-.44-.18-.81-.55-1.1-.37-.29-.83-.44-1.4-.44s-.99,.12-1.32,.37-.5,.56-.5,.95,.14,.67,.41,.87,.78,.4,1.51,.57c.73,.17,1.28,.36,1.64,.55,.36,.2,.63,.43,.81,.7,.18,.27,.26,.61,.26,1,0,.64-.26,1.14-.77,1.53s-1.18,.57-2.01,.57c-.88,0-1.59-.21-2.13-.64-.55-.42-.82-.96-.82-1.61h.84c.03,.49,.24,.87,.62,1.14,.38,.27,.88,.41,1.5,.41,.58,0,1.05-.13,1.41-.38,.36-.26,.54-.58,.54-.97Z"/><path class="c" d="M133.75,4.31c0-.16,.05-.29,.15-.4s.24-.16,.42-.16,.32,.05,.42,.16c.1,.11,.16,.24,.16,.4s-.05,.29-.16,.39c-.1,.11-.24,.16-.42,.16s-.32-.05-.42-.16c-.1-.11-.15-.24-.15-.39Zm.98,9.71h-.84V6.49h.84v7.53Z"/><path class="c" d="M137.51,6.49l.03,1.29c.28-.46,.64-.82,1.06-1.06s.89-.37,1.4-.37c.81,0,1.41,.23,1.8,.68,.39,.46,.59,1.14,.6,2.05v4.94h-.83v-4.95c0-.67-.15-1.17-.43-1.5-.28-.33-.73-.49-1.35-.49-.52,0-.97,.16-1.37,.48-.4,.32-.69,.76-.88,1.31v5.16h-.83V6.49h.79Z"/><path class="c" d="M147.18,14.17c-.64,0-1.22-.16-1.74-.47s-.92-.76-1.21-1.32c-.29-.56-.43-1.2-.43-1.9v-.3c0-.72,.14-1.38,.42-1.96s.67-1.04,1.17-1.37c.5-.33,1.04-.5,1.63-.5,.91,0,1.64,.31,2.18,.94,.54,.62,.8,1.48,.8,2.56v.47h-5.38v.16c0,.85,.24,1.57,.73,2.13,.49,.57,1.11,.85,1.85,.85,.45,0,.84-.08,1.18-.24s.65-.42,.93-.78l.52,.4c-.61,.89-1.5,1.33-2.67,1.33Zm-.15-7.1c-.63,0-1.16,.23-1.58,.69s-.69,1.08-.78,1.85h4.52v-.09c-.02-.72-.23-1.31-.62-1.77-.39-.46-.9-.68-1.53-.68Z"/><path class="c" d="M155.86,12.11c0-.41-.17-.74-.5-1s-.83-.45-1.5-.59c-.67-.14-1.19-.3-1.56-.49-.37-.18-.64-.41-.82-.67-.18-.26-.27-.59-.27-.96,0-.59,.25-1.09,.75-1.47,.5-.39,1.13-.58,1.91-.58,.84,0,1.51,.21,2.02,.62,.51,.42,.76,.96,.76,1.63h-.84c0-.44-.18-.81-.55-1.1-.37-.29-.83-.44-1.4-.44s-.99,.12-1.32,.37-.5,.56-.5,.95,.14,.67,.41,.87,.78,.4,1.51,.57c.73,.17,1.28,.36,1.64,.55,.36,.2,.63,.43,.81,.7,.18,.27,.26,.61,.26,1,0,.64-.26,1.14-.77,1.53s-1.18,.57-2.01,.57c-.88,0-1.59-.21-2.13-.64-.55-.42-.82-.96-.82-1.61h.84c.03,.49,.24,.87,.62,1.14,.38,.27,.88,.41,1.5,.41,.58,0,1.05-.13,1.41-.38,.36-.26,.54-.58,.54-.97Z"/><path class="c" d="M162.79,12.11c0-.41-.17-.74-.5-1s-.83-.45-1.5-.59c-.67-.14-1.19-.3-1.56-.49-.37-.18-.64-.41-.82-.67-.18-.26-.27-.59-.27-.96,0-.59,.25-1.09,.75-1.47,.5-.39,1.13-.58,1.91-.58,.84,0,1.51,.21,2.02,.62,.51,.42,.76,.96,.76,1.63h-.84c0-.44-.18-.81-.55-1.1-.37-.29-.83-.44-1.4-.44s-.99,.12-1.32,.37-.5,.56-.5,.95,.14,.67,.41,.87,.78,.4,1.51,.57c.73,.17,1.28,.36,1.64,.55,.36,.2,.63,.43,.81,.7,.18,.27,.26,.61,.26,1,0,.64-.26,1.14-.77,1.53s-1.18,.57-2.01,.57c-.88,0-1.59-.21-2.13-.64-.55-.42-.82-.96-.82-1.61h.84c.03,.49,.24,.87,.62,1.14,.38,.27,.88,.41,1.5,.41,.58,0,1.05-.13,1.41-.38,.36-.26,.54-.58,.54-.97Z"/></g><g><path class="d" d="M51.2,25.46l2.71-4.84h.87l-3.21,5.53v3.34h-.75v-3.34l-3.2-5.53h.89l2.69,4.84Z"/><path class="d" d="M54.95,26.1c0-.63,.12-1.21,.37-1.71,.25-.51,.59-.9,1.04-1.18,.45-.28,.96-.42,1.53-.42,.88,0,1.59,.31,2.13,.92,.55,.62,.82,1.43,.82,2.45v.15c0,.64-.12,1.21-.37,1.72-.25,.51-.59,.9-1.04,1.18-.45,.28-.96,.41-1.53,.41-.87,0-1.58-.31-2.13-.92-.55-.62-.82-1.43-.82-2.45v-.15Zm.73,.2c0,.79,.2,1.44,.61,1.94,.41,.51,.94,.76,1.61,.76s1.19-.25,1.6-.76c.41-.51,.61-1.17,.61-2v-.14c0-.5-.09-.96-.28-1.38-.19-.42-.45-.74-.79-.97-.34-.23-.72-.34-1.16-.34-.65,0-1.18,.25-1.59,.77-.41,.51-.62,1.18-.62,2v.13Z"/><path class="d" d="M66.43,28.66c-.44,.64-1.14,.96-2.1,.96-.7,0-1.24-.2-1.6-.61-.37-.41-.55-1.01-.56-1.81v-4.29h.73v4.2c0,1.26,.51,1.88,1.52,1.88s1.72-.44,2-1.31v-4.77h.73v6.59h-.71v-.83Z"/><path class="d" d="M71.94,23.52c-.15-.03-.32-.04-.49-.04-.46,0-.84,.13-1.15,.38s-.54,.62-.67,1.11v4.53h-.73v-6.59h.71v1.05c.4-.78,1.02-1.17,1.87-1.17,.2,0,.36,.03,.48,.08l-.02,.66Z"/><path class="d" d="M82.6,29.49h-.75l-5.1-7.59v7.59h-.76v-8.87h.76l5.11,7.6v-7.6h.74v8.87Z"/><path class="d" d="M87.09,29.61c-.56,0-1.07-.14-1.52-.41-.45-.28-.81-.66-1.06-1.15-.25-.49-.38-1.05-.38-1.66v-.26c0-.63,.12-1.2,.37-1.71,.25-.51,.59-.91,1.03-1.2,.44-.29,.91-.44,1.43-.44,.8,0,1.43,.27,1.9,.82,.47,.55,.7,1.29,.7,2.24v.41h-4.7v.14c0,.75,.21,1.37,.64,1.87,.43,.5,.97,.75,1.62,.75,.39,0,.73-.07,1.03-.21,.3-.14,.57-.37,.81-.68l.46,.35c-.54,.78-1.31,1.16-2.33,1.16Zm-.13-6.22c-.55,0-1.01,.2-1.39,.6s-.6,.94-.69,1.62h3.95v-.08c-.02-.63-.2-1.15-.54-1.55-.34-.4-.79-.6-1.34-.6Z"/><path class="d" d="M91.97,21.21v1.69h1.37v.6h-1.37v4.4c0,.37,.07,.64,.2,.82,.13,.18,.35,.27,.66,.27,.12,0,.32-.02,.59-.06l.03,.59c-.19,.07-.45,.1-.78,.1-.5,0-.86-.15-1.09-.44-.23-.29-.34-.72-.34-1.28v-4.4h-1.21v-.6h1.21v-1.69h.73Z"/><path class="d" d="M98.09,28.86h5.48v.63h-6.39v-.57l5.27-7.67h-5.11v-.63h6.03v.53l-5.28,7.71Z"/><path class="d" d="M107.45,29.61c-.56,0-1.07-.14-1.52-.41-.45-.28-.81-.66-1.06-1.15-.25-.49-.38-1.05-.38-1.66v-.26c0-.63,.12-1.2,.37-1.71,.25-.51,.59-.91,1.03-1.2,.44-.29,.91-.44,1.43-.44,.8,0,1.43,.27,1.9,.82,.47,.55,.7,1.29,.7,2.24v.41h-4.7v.14c0,.75,.21,1.37,.64,1.87,.43,.5,.97,.75,1.62,.75,.39,0,.73-.07,1.03-.21,.3-.14,.57-.37,.81-.68l.46,.35c-.54,.78-1.31,1.16-2.33,1.16Zm-.13-6.22c-.55,0-1.01,.2-1.39,.6s-.6,.94-.69,1.62h3.95v-.08c-.02-.63-.2-1.15-.54-1.55-.34-.4-.79-.6-1.34-.6Z"/><path class="d" d="M114.24,23.52c-.15-.03-.32-.04-.49-.04-.46,0-.84,.13-1.15,.38s-.54,.62-.67,1.11v4.53h-.73v-6.59h.71v1.05c.4-.78,1.02-1.17,1.87-1.17,.2,0,.36,.03,.48,.08l-.02,.66Z"/><path class="d" d="M114.72,26.1c0-.63,.12-1.21,.37-1.71,.25-.51,.59-.9,1.04-1.18,.45-.28,.96-.42,1.53-.42,.88,0,1.59,.31,2.13,.92,.55,.62,.82,1.43,.82,2.45v.15c0,.64-.12,1.21-.37,1.72-.25,.51-.59,.9-1.04,1.18-.45,.28-.96,.41-1.53,.41-.87,0-1.58-.31-2.13-.92-.55-.62-.82-1.43-.82-2.45v-.15Zm.73,.2c0,.79,.2,1.44,.61,1.94,.41,.51,.94,.76,1.61,.76s1.19-.25,1.6-.76c.41-.51,.61-1.17,.61-2v-.14c0-.5-.09-.96-.28-1.38-.19-.42-.45-.74-.79-.97-.34-.23-.72-.34-1.16-.34-.65,0-1.18,.25-1.59,.77-.41,.51-.62,1.18-.62,2v.13Z"/><path class="d" d="M125.76,25.88v3.61h-.75v-8.87h3.02c.92,0,1.65,.24,2.18,.71s.8,1.12,.8,1.94-.26,1.48-.77,1.93c-.51,.45-1.26,.68-2.23,.68h-2.25Zm0-.63h2.27c.73,0,1.28-.17,1.66-.52,.38-.35,.57-.83,.57-1.45s-.19-1.1-.57-1.47c-.38-.36-.92-.55-1.62-.56h-2.32v3.99Z"/><path class="d" d="M136.47,29.49c-.07-.21-.12-.51-.14-.92-.26,.33-.58,.59-.98,.77-.4,.18-.82,.27-1.26,.27-.63,0-1.15-.18-1.54-.53-.39-.35-.59-.8-.59-1.34,0-.64,.27-1.15,.8-1.52,.53-.37,1.28-.56,2.23-.56h1.32v-.75c0-.47-.15-.84-.44-1.11-.29-.27-.71-.41-1.27-.41-.51,0-.93,.13-1.26,.39-.33,.26-.5,.57-.5,.94h-.73c0-.53,.24-.98,.73-1.37s1.09-.58,1.8-.58,1.32,.18,1.74,.55c.42,.37,.64,.88,.66,1.54v3.12c0,.64,.07,1.11,.2,1.43v.07h-.78Zm-2.29-.52c.49,0,.92-.12,1.31-.35,.38-.24,.66-.55,.84-.94v-1.45h-1.3c-.73,0-1.3,.14-1.71,.4s-.62,.61-.62,1.06c0,.37,.14,.68,.41,.92s.63,.37,1.07,.37Z"/><path class="d" d="M141.89,23.52c-.15-.03-.32-.04-.49-.04-.46,0-.84,.13-1.15,.38s-.54,.62-.67,1.11v4.53h-.73v-6.59h.71v1.05c.4-.78,1.02-1.17,1.87-1.17,.2,0,.36,.03,.48,.08l-.02,.66Z"/><path class="d" d="M144.33,21.21v1.69h1.37v.6h-1.37v4.4c0,.37,.07,.64,.2,.82,.13,.18,.35,.27,.66,.27,.12,0,.32-.02,.59-.06l.03,.59c-.19,.07-.45,.1-.78,.1-.5,0-.86-.15-1.09-.44-.23-.29-.34-.72-.34-1.28v-4.4h-1.21v-.6h1.21v-1.69h.73Z"/><path class="d" d="M147.75,22.9l.02,1.13c.25-.41,.56-.72,.93-.93s.78-.32,1.22-.32c.71,0,1.23,.2,1.58,.6,.35,.4,.52,1,.52,1.79v4.33h-.72v-4.33c0-.59-.13-1.03-.37-1.32-.25-.29-.64-.43-1.18-.43-.45,0-.85,.14-1.2,.42-.35,.28-.6,.66-.77,1.14v4.52h-.73v-6.59h.69Z"/><path class="d" d="M156.32,29.61c-.56,0-1.07-.14-1.52-.41-.45-.28-.81-.66-1.06-1.15-.25-.49-.38-1.05-.38-1.66v-.26c0-.63,.12-1.2,.37-1.71,.25-.51,.59-.91,1.03-1.2,.44-.29,.91-.44,1.43-.44,.8,0,1.43,.27,1.9,.82,.47,.55,.7,1.29,.7,2.24v.41h-4.7v.14c0,.75,.21,1.37,.64,1.87,.43,.5,.97,.75,1.62,.75,.39,0,.73-.07,1.03-.21,.3-.14,.57-.37,.81-.68l.46,.35c-.54,.78-1.31,1.16-2.33,1.16Zm-.13-6.22c-.55,0-1.01,.2-1.39,.6s-.6,.94-.69,1.62h3.95v-.08c-.02-.63-.2-1.15-.54-1.55-.34-.4-.79-.6-1.34-.6Z"/><path class="d" d="M163.11,23.52c-.15-.03-.32-.04-.49-.04-.46,0-.84,.13-1.15,.38s-.54,.62-.67,1.11v4.53h-.73v-6.59h.71v1.05c.4-.78,1.02-1.17,1.87-1.17,.2,0,.36,.03,.48,.08l-.02,.66Z"/></g><g><g><path class="c" d="M54.32,10.86c-.09,1.03-.45,1.82-1.06,2.37-.61,.55-1.45,.82-2.49,.82-.71,0-1.34-.18-1.88-.54s-.97-.87-1.27-1.53c-.3-.66-.45-1.42-.46-2.27v-1.54c0-.85,.15-1.61,.45-2.28,.3-.67,.72-1.19,1.27-1.55s1.18-.55,1.9-.55c1.04,0,1.87,.28,2.49,.82,.62,.55,.97,1.33,1.07,2.36h-.37c-.11-.92-.43-1.61-.96-2.09-.53-.48-1.28-.72-2.22-.72s-1.76,.36-2.35,1.1c-.59,.73-.9,1.71-.9,2.94v1.47c0,.79,.14,1.48,.4,2.09,.27,.6,.65,1.08,1.14,1.42,.49,.34,1.06,.51,1.7,.51,.95,0,1.7-.23,2.24-.71s.85-1.18,.95-2.12h.36Z"/><path class="c" d="M56.9,13.92h-.37V3.39h.37V13.92Z"/><path class="c" d="M62,14.05c-.6,0-1.15-.16-1.65-.48s-.89-.77-1.18-1.33c-.28-.56-.42-1.19-.42-1.87v-.31c0-.68,.14-1.31,.41-1.89,.28-.57,.65-1.02,1.13-1.34,.48-.32,1-.48,1.57-.48,.83,0,1.51,.3,2.03,.89s.79,1.36,.79,2.33v.39h-5.56v.4c0,.6,.12,1.16,.38,1.67,.26,.52,.6,.92,1.05,1.21,.45,.29,.93,.44,1.45,.44s.92-.08,1.27-.25c.35-.17,.66-.42,.93-.77l.26,.18c-.55,.81-1.37,1.21-2.46,1.21Zm-.14-7.32c-.72,0-1.33,.27-1.84,.81-.51,.54-.8,1.22-.89,2.06h5.17v-.09c0-.51-.11-.97-.32-1.4-.21-.43-.51-.77-.87-1.01-.37-.24-.8-.36-1.26-.36Z"/><path class="c" d="M71.2,13.92c-.09-.31-.14-.77-.14-1.36-.29,.48-.69,.84-1.2,1.1-.51,.26-1.08,.39-1.72,.39-.68,0-1.24-.18-1.66-.56s-.63-.86-.63-1.46c0-.68,.31-1.23,.92-1.64,.61-.41,1.43-.62,2.45-.63h1.83v-1.08c0-.62-.2-1.1-.59-1.45s-.95-.52-1.68-.52c-.68,0-1.24,.17-1.69,.52s-.68,.78-.68,1.29l-.37-.02c0-.6,.27-1.11,.8-1.54,.53-.42,1.18-.63,1.94-.63s1.43,.2,1.91,.6c.47,.4,.71,.96,.72,1.69v3.55c0,.81,.07,1.37,.19,1.66v.06h-.41Zm-3.05-.23c.69,0,1.29-.16,1.79-.46,.5-.31,.87-.74,1.13-1.31v-1.77h-1.71c-1.06,0-1.87,.21-2.43,.63-.46,.34-.68,.77-.68,1.28,0,.45,.18,.83,.54,1.15,.35,.32,.81,.47,1.36,.47Z"/><path class="c" d="M77.09,6.77l-.48-.04c-.63,0-1.16,.2-1.58,.61-.43,.41-.71,.98-.83,1.71v4.85h-.37V6.5h.37v1.54c.2-.52,.51-.92,.91-1.23,.4-.3,.91-.45,1.52-.45,.21,0,.39,.03,.52,.08l-.05,.33Z"/><g><polygon class="c" points="82.25 12.9 82.18 13.1 82.12 12.9 78.76 3.89 78.73 3.8 78.02 3.8 81.86 14.06 82.51 14.06 86.34 3.8 85.63 3.8 82.25 12.9"/><path class="c" d="M93.95,10.67c0,.89-.27,1.59-.79,2.1-.53,.51-1.23,.77-2.11,.77s-1.59-.26-2.11-.77c-.53-.51-.79-1.21-.79-2.09V3.8h-.65v6.93c0,1.07,.33,1.93,.97,2.54,.64,.61,1.51,.93,2.59,.93s1.95-.31,2.58-.93,.96-1.48,.96-2.57V3.8h-.65v6.87h0Z"/><polygon class="c" points="103.31 4.45 103.31 3.8 96.95 3.8 96.95 14.06 103.31 14.06 103.31 13.41 97.61 13.41 97.61 9.11 102.61 9.11 102.61 8.46 97.61 8.46 97.61 4.45 103.31 4.45"/></g></g><circle class="i" cx="107.37" cy="13.15" r="1.04"/></g></g></svg>